<svg xmlns="http://www.w3.org/2000/svg" width="24" height="24" viewBox="0 0 24 24" fill="currentColor">
  <path d="M12 2a10 10 0 0 0-3.16 19.49c.5.09.68-.22.68-.48v-1.7c-2.78.6-3.37-1.18-3.37-1.18-.46-1.17-1.12-1.48-1.12-1.48-.92-.63.07-.62.07-.62 1.02.07 1.56 1.05 1.56 1.05 .9 1.54 2.36 1.1 2.94.84.09-.66.35-1.1.63-1.35-2.22-.25-4.56-1.11-4.56-4.95 0-1.09.39-1.98 1.03-2.68-.1-.25-.45-1.27.1-2.65 0 0 .84-.27 2.75 1.02a9.56 9.56 0 0 1 5 0c1.9-1.29 2.74-1.02 2.74-1.02.56 1.38.21 2.4.1 2.65.64.7 1.03 1.59 1.03 2.68 0 3.85-2.34 4.7-4.57 4.95.36.31.67.92.67 1.86v2.76c0 .27.18.58.69.48A10 10 0 0 0 12 2z"/>
</svg>